<?xml version="1.0" standalone="no"?>
<!DOCTYPE svg PUBLIC "-//W3C//DTD SVG 20010904//EN"
 "http://www.w3.org/TR/2001/REC-SVG-20010904/DTD/svg10.dtd">
<svg version="1.0" xmlns="http://www.w3.org/2000/svg"
 width="812.000000pt" height="200.000000pt" viewBox="0 0 812.000000 200.000000"
 preserveAspectRatio="xMidYMid meet">

<g transform="translate(0.000000,200.000000) scale(0.100000,-0.100000)"
fill="#000000" stroke="none">
<path d="M5388 1883 c-40 -25 -79 -104 -85 -172 -6 -65 19 -168 42 -178 77
-29 211 102 245 239 10 40 10 52 -3 71 -34 53 -143 74 -199 40z"/>
<path d="M905 1822 c-160 -56 -320 -246 -437 -518 l-26 -61 -68 -17 c-88 -22
-166 -59 -209 -100 -36 -35 -46 -73 -20 -82 8 -3 63 1 122 9 59 8 109 14 111
12 1 -1 -9 -49 -22 -106 -52 -215 -57 -360 -15 -413 27 -34 85 -35 154 -2 84
39 88 48 98 204 5 75 14 182 21 237 l11 100 180 -4 c99 -2 182 -5 183 -7 2 -1
-13 -69 -33 -149 -41 -162 -44 -249 -11 -313 29 -56 69 -73 162 -70 68 3 90 8
148 37 37 19 94 61 127 92 l59 57 0 -57 c0 -119 34 -168 107 -155 52 9 90 30
109 60 15 21 16 43 10 154 -6 109 -4 143 15 232 11 56 24 106 27 109 4 4 39 9
79 12 l71 6 -23 -57 c-33 -83 -48 -165 -49 -267 -1 -76 3 -98 23 -138 32 -65
69 -87 146 -87 95 1 179 47 245 134 38 51 50 57 50 24 1 -38 35 -102 71 -132
30 -26 38 -28 100 -24 91 5 212 64 292 144 l57 57 0 -64 c0 -84 15 -135 46
-155 23 -15 28 -15 72 1 63 24 119 60 132 86 9 16 8 37 -6 92 -10 40 -19 104
-19 142 0 62 5 80 42 157 47 99 113 178 149 178 45 0 57 -26 50 -109 -3 -42
-9 -166 -12 -276 -6 -167 -4 -206 9 -236 23 -56 55 -59 147 -12 91 46 101 65
80 156 -27 113 -21 172 27 269 61 122 118 167 174 138 24 -13 25 -78 4 -200
-18 -100 -19 -219 -4 -274 6 -22 24 -53 40 -69 28 -28 33 -29 97 -25 81 4 154
38 224 102 l47 43 29 -48 c44 -69 104 -101 202 -107 44 -2 100 1 128 8 60 14
136 65 174 116 24 32 28 35 34 18 20 -62 30 -82 52 -107 22 -23 33 -27 82 -27
65 0 172 46 234 100 20 18 38 31 40 29 2 -2 -1 -28 -6 -57 l-11 -52 -116 -37
c-202 -62 -281 -107 -317 -175 -42 -81 20 -201 129 -248 72 -32 178 -38 251
-15 110 35 168 111 230 301 l27 81 91 54 c50 30 121 82 158 116 l67 62 29 -44
c69 -111 210 -148 408 -110 90 17 151 42 218 91 28 19 51 34 52 32 1 -2 8 -16
16 -32 23 -45 91 -83 173 -97 124 -21 220 14 286 103 l28 38 13 -45 c22 -79
58 -103 145 -96 37 4 209 95 253 135 l42 39 0 -49 c0 -112 36 -161 107 -148
52 9 90 30 109 60 15 21 16 43 10 154 -6 109 -4 143 15 232 11 56 24 106 27
109 4 4 39 9 79 12 l71 6 -23 -57 c-33 -83 -48 -165 -49 -267 -1 -76 3 -98 23
-138 31 -65 69 -87 146 -87 79 0 150 34 215 101 71 74 105 148 105 228 0 43
-4 66 -13 69 -7 2 -57 -39 -110 -91 -179 -174 -192 -162 -118 109 24 87 46
171 50 185 8 38 -47 147 -80 155 -15 4 -50 -5 -98 -25 -46 -19 -92 -31 -119
-31 l-45 0 -34 67 c-41 83 -80 113 -148 113 -111 0 -147 -112 -66 -206 l33
-38 -23 -51 c-13 -27 -31 -83 -40 -123 -16 -71 -19 -75 -100 -157 -84 -84
-136 -121 -154 -110 -18 11 -10 96 21 250 39 194 49 334 25 370 -13 20 -24 25
-59 25 -60 0 -116 -18 -143 -45 -23 -23 -24 -31 -24 -143 0 -135 -21 -235 -71
-342 -47 -102 -100 -145 -162 -133 -68 13 -70 70 -11 300 49 191 45 325 -11
347 -45 17 -195 -8 -195 -33 0 -3 -11 -98 -25 -211 l-24 -205 -63 -58 c-121
-111 -264 -154 -374 -112 -54 21 -74 47 -74 101 0 46 -3 44 153 103 146 55
216 112 238 193 21 80 -1 145 -65 192 -24 18 -42 21 -129 21 -92 0 -108 -3
-162 -29 -126 -62 -234 -210 -273 -375 -16 -71 -19 -75 -87 -135 -90 -80 -155
-130 -160 -124 -3 2 7 45 21 94 45 154 94 377 94 427 0 53 -24 108 -65 149
-58 58 -103 45 -135 -39 -26 -71 -98 -306 -106 -350 -7 -35 -136 -167 -213
-219 -40 -26 -43 -26 -59 -10 -15 14 -17 39 -17 179 l0 162 38 66 c20 36 37
76 37 89 0 58 -76 130 -145 138 -35 3 -45 1 -57 -17 -14 -20 -19 -21 -63 -10
-28 7 -79 10 -127 6 -65 -4 -94 -12 -152 -41 -137 -67 -243 -204 -282 -361
-15 -61 -24 -77 -73 -128 -62 -64 -115 -102 -131 -92 -15 9 -12 41 15 145 31
118 46 244 35 293 -20 92 -87 132 -204 125 -80 -5 -135 -29 -195 -83 l-38 -35
-7 39 c-12 79 -95 141 -186 141 -63 0 -106 -18 -157 -64 l-40 -36 -18 41 c-18
39 -76 99 -96 99 -73 0 -180 -215 -195 -394 -6 -70 -7 -72 -63 -129 -56 -59
-163 -130 -213 -142 -21 -5 -29 -2 -39 17 -22 40 -12 293 17 441 l6 27 92 -6
92 -7 12 28 c7 15 15 47 19 70 l5 42 -53 6 c-30 4 -73 7 -96 7 l-42 0 35 60
c33 56 34 62 24 101 -15 53 -59 99 -96 99 -42 0 -97 -65 -133 -159 -17 -44
-31 -84 -31 -89 0 -10 -47 -22 -86 -22 -30 0 -54 -44 -54 -100 l0 -40 46 0
c45 0 46 -1 41 -27 -4 -16 -14 -80 -23 -143 l-16 -115 -82 -83 c-81 -84 -128
-118 -146 -107 -18 11 -10 59 34 221 24 87 46 171 50 185 8 38 -47 147 -80
155 -15 4 -50 -5 -98 -25 -46 -19 -92 -31 -119 -31 l-45 0 -34 67 c-41 83 -80
113 -148 113 -112 0 -147 -112 -66 -206 l34 -39 -20 -38 c-10 -21 -28 -73 -39
-115 -19 -75 -22 -80 -106 -164 -97 -98 -164 -141 -185 -120 -8 8 -13 39 -13
80 0 58 9 90 64 237 94 251 113 335 109 470 -3 95 -8 117 -30 161 -35 68 -95
119 -159 138 -69 21 -181 20 -244 -2z m134 -227 c58 -29 72 -137 36 -272 l-19
-73 -140 0 c-78 0 -165 3 -194 7 -52 6 -54 7 -48 34 9 46 65 156 106 208 74
94 185 135 259 96z m3607 -381 c-12 -46 -25 -168 -26 -230 0 -80 -23 -143 -70
-197 -72 -82 -158 -101 -211 -48 -30 30 -33 47 -29 150 5 135 123 283 267 336
61 22 76 20 69 -11z m1325 -28 c18 -38 -12 -80 -92 -132 -39 -25 -73 -43 -76
-40 -12 11 38 144 63 169 36 36 90 37 105 3z m-1021 -891 c-37 -78 -65 -100
-117 -92 -75 12 -119 73 -72 98 42 22 214 76 217 68 2 -5 -11 -38 -28 -74z"/>
</g>
</svg>
